<svg width="148" height="370" viewBox="0 0 148 370" fill="none" xmlns="http://www.w3.org/2000/svg">
<path d="M87.5843 197.178L69.8925 202.016C63.5655 203.735 59.1388 209.344 58.9428 215.834L58.2393 239.123L29.8981 247.836L33.3214 134.506L15.8754 139.353C9.39869 141.14 4.86932 146.891 4.66812 153.551L0.718985 284.287L66.5601 265.9C77.9264 262.732 85.8848 252.627 86.238 240.934L87.5598 197.177L87.5843 197.178Z" fill="#EDEDED"/>
<path d="M60.2667 172.564L78.066 167.599C84.347 165.835 88.7242 160.277 88.9195 153.811L89.6186 130.668L117.967 121.979L114.544 235.309L132.02 230.454C138.475 228.648 143.005 222.925 143.205 216.289L147.154 85.5529L81.2707 103.882C69.9014 107.041 61.9409 117.139 61.5877 128.831L60.2667 172.564Z" fill="#EDEDED"/>
</svg>
