<svg width="41" height="41" viewBox="0 0 41 41" fill="none" xmlns="http://www.w3.org/2000/svg">
<circle cx="20.2598" cy="20.2292" r="20" fill="#7289DA"/>
<path d="M22.3284 19.6887C22.9799 19.6887 23.4941 20.2512 23.4941 20.9375C23.4941 21.6237 22.9684 22.1862 22.3284 22.1862C21.677 22.1862 21.1627 21.6237 21.1627 20.9375C21.1513 20.2512 21.677 19.6887 22.3284 19.6887ZM18.157 19.6887C18.8084 19.6887 19.3227 20.2512 19.3227 20.9375C19.3227 21.6237 18.797 22.1862 18.157 22.1862C17.5056 22.1862 16.9913 21.6237 16.9913 20.9375C16.9913 20.2512 17.5056 19.6887 18.157 19.6887Z" fill="white"/>
<path d="M27.9169 10.25H12.6026C11.3112 10.25 10.2598 11.285 10.2598 12.5675V27.7775C10.2598 29.06 11.3112 30.095 12.6026 30.095H25.5626L24.9569 28.0137L26.4198 29.3525L27.8026 30.6125L30.2598 32.75V12.5675C30.2598 11.285 29.2083 10.25 27.9169 10.25ZM23.5055 24.9425C23.5055 24.9425 23.0941 24.4587 22.7512 24.0312C24.2483 23.615 24.8198 22.6925 24.8198 22.6925C24.3512 22.9962 23.9055 23.21 23.5055 23.3562C22.934 23.5925 22.3855 23.75 21.8483 23.84C20.7512 24.0425 19.7455 23.9862 18.8883 23.8287C18.2369 23.705 17.6769 23.525 17.2083 23.345C16.9455 23.2437 16.6598 23.12 16.3741 22.9625C16.3398 22.94 16.3055 22.9287 16.2712 22.9062C16.2483 22.895 16.2369 22.8837 16.2255 22.8725C16.0198 22.76 15.9055 22.6812 15.9055 22.6812C15.9055 22.6812 16.4541 23.5812 17.9055 24.0087C17.5626 24.4362 17.1398 24.9425 17.1398 24.9425C14.6141 24.8637 13.6541 23.2325 13.6541 23.2325C13.6541 19.61 15.2998 16.6737 15.2998 16.6737C16.9455 15.4587 18.5112 15.4925 18.5112 15.4925L18.6255 15.6275C16.5683 16.2125 15.6198 17.1012 15.6198 17.1012C15.6198 17.1012 15.8712 16.9662 16.2941 16.775C17.5169 16.2462 18.4883 16.1 18.8883 16.0662C18.9569 16.055 19.0141 16.0437 19.0826 16.0437C19.7798 15.9537 20.5683 15.9312 21.3912 16.0212C22.4769 16.145 23.6426 16.46 24.8312 17.1012C24.8312 17.1012 23.9283 16.2575 21.9855 15.6725L22.1455 15.4925C22.1455 15.4925 23.7112 15.4587 25.3569 16.6737C25.3569 16.6737 27.0026 19.61 27.0026 23.2325C27.0026 23.2325 26.0312 24.8637 23.5055 24.9425V24.9425Z" fill="white"/>
</svg>
