<svg width="40" height="40" viewBox="0 0 40 40" fill="none" xmlns="http://www.w3.org/2000/svg">
<circle cx="20" cy="20" r="20" fill="#181717"/>
<path d="M2.81445 30.235C5.24909 34.3138 9.09491 37.4526 13.6782 38.9784C14.6788 39.1614 15.0435 38.5438 15.0435 38.0134C15.0435 37.7938 15.0398 37.4058 15.0349 36.8866C15.0291 36.2852 15.0218 35.5079 15.0165 34.6124C9.45339 35.8206 8.27963 31.931 8.27963 31.931C7.36984 29.6215 6.05857 29.0064 6.05857 29.0064C4.24267 27.7651 6.19608 27.7896 6.19608 27.7896C8.20351 27.9321 9.2594 29.8511 9.2594 29.8511C11.0434 32.9071 13.9409 32.0243 15.0803 31.5135C15.262 30.2207 15.7777 29.3391 16.3499 28.8394C11.909 28.3348 7.2397 26.6183 7.2397 18.9545C7.2397 16.7715 8.01934 14.9863 9.29869 13.5879C9.09242 13.082 8.40609 11.0488 9.49391 8.29488C9.49391 8.29488 11.1735 7.75711 14.9944 10.3453C16.5893 9.90205 18.3008 9.67982 20.0013 9.67246C21.6993 9.67982 23.4108 9.90205 25.0082 10.3453C28.8266 7.75711 30.5025 8.29488 30.5025 8.29488C31.594 11.0488 30.9077 13.082 30.7014 13.5879C31.9832 14.9863 32.758 16.7715 32.758 18.9545C32.758 26.638 28.0813 28.3286 23.6257 28.8234C24.344 29.441 24.9836 30.6614 24.9836 32.5277C24.9836 34.3152 24.9727 35.8722 24.9654 36.9035C24.9618 37.4143 24.9591 37.7962 24.9591 38.0134C24.9591 38.5487 25.3188 39.1712 26.3342 38.976C29.9853 37.7572 33.168 35.5154 35.5412 32.5903C31.8744 37.1108 26.2749 40 20.0007 40C12.6953 40 6.30476 36.0832 2.81445 30.235Z" fill="white"/>
</svg>
