<svg width="160" height="30" viewBox="0 0 664 204" fill="none" xmlns="http://www.w3.org/2000/svg">
<path d="M260.205 110.804V150.836H237.295V113.479C237.295 105.818 234.595 101.903 228.637 101.903C221.705 101.903 217.376 106.815 217.376 115.352V150.86H194.466V60.3634H217.376V88.7454C222.265 84.8055 228.491 82.3977 235.13 82.3977C250.379 82.3977 260.205 93.5852 260.205 110.804Z" fill="#1A1A1A"/>
<path d="M344.67 84.2948V150.787H326.964L324.994 146.093C319.547 150.495 312.664 153.049 304.93 153.049C284.598 153.049 270.054 138.213 270.054 117.541C270.054 96.9415 284.598 82.3005 304.93 82.3005C312.761 82.3005 319.765 84.9271 325.238 89.4507L327.572 84.3191L344.67 84.2948ZM322.903 117.59C322.903 108.956 316.604 102.487 308.019 102.487C299.385 102.487 293.135 108.98 293.135 117.59C293.135 126.272 299.434 132.765 308.019 132.765C316.604 132.765 322.903 126.272 322.903 117.59Z" fill="#1A1A1A"/>
<path d="M399.683 150.86L383.023 122.745V150.86H360.113V60.3634H383.023V110.415L398.856 84.3677H424.562L403.841 116.057L426.654 150.86H399.683Z" fill="#1A1A1A"/>
<path d="M473.179 150.86L456.52 122.745V150.86H433.61V60.3634H456.52V110.415L472.352 84.3677H498.059L477.338 116.057L500.15 150.86H473.179Z" fill="#1A1A1A"/>
<path d="M571.604 116.981C571.604 118.976 571.433 120.994 571.142 123.037H521.771C523.279 130.674 528.119 134.614 535.342 134.614C540.692 134.614 545.167 132.279 547.356 128.388H570.145C565.475 143.564 552.026 153.049 535.342 153.049C514.597 153.049 499.226 137.897 499.226 117.565C499.226 97.1846 514.475 82.2032 535.342 82.2032C556.744 82.1788 571.604 97.4764 571.604 116.981ZM522.16 110.366H549.034C547.016 103.727 542.225 100.127 535.318 100.127C528.654 100.127 524.009 103.751 522.16 110.366Z" fill="#1A1A1A"/>
<path d="M582.013 84.3677H604.923V150.86H582.013V84.3677ZM582.183 56.5938H604.728V76.0258H582.183V56.5938Z" fill="#1A1A1A"/>
<path d="M83.2489 113.82L65.9084 119.292C59.7067 121.237 55.4993 127.001 55.4993 133.495V156.794L27.7496 166.522V53.1401L10.6524 58.6122C4.30472 60.6308 0 66.5407 0 73.2045V204L64.5222 183.255C75.661 179.679 83.2246 169.295 83.2246 157.597V113.82H83.2489Z" fill="#1A1A1A"/>
<path d="M55.4995 90.1559L72.9373 84.5379C79.0904 82.5436 83.2492 76.8283 83.2492 70.3591V47.206L110.999 37.4778V150.86L128.12 145.363C134.444 143.32 138.748 137.435 138.748 130.795V0L74.2019 20.7454C63.0632 24.3205 55.4995 34.7053 55.4995 46.4034V90.1559Z" fill="#1A1A1A"/>
<path d="M636.207 30.1529C643.385 30.1529 648.121 35.1849 648.121 42.3629C648.121 49.5409 643.385 54.5729 636.207 54.5729C628.955 54.5729 624.367 49.5409 624.367 42.3629C624.367 35.1849 628.955 30.1529 636.207 30.1529ZM636.207 57.5329C644.939 57.5329 651.155 51.0949 651.155 42.3629C651.155 33.6309 644.939 27.2669 636.207 27.2669C627.401 27.2669 621.185 33.6309 621.185 42.3629C621.185 51.0949 627.401 57.5329 636.207 57.5329ZM642.867 39.2549C642.867 36.2209 640.647 34.2969 637.317 34.2969H630.213V50.2069H634.061V44.2869H635.319L638.871 50.2069L643.533 50.1329L639.389 43.9909C641.535 43.3249 642.867 41.6229 642.867 39.2549ZM637.095 37.7749C638.131 37.7749 639.019 38.2189 639.019 39.4029C639.019 40.5869 638.131 41.1049 637.095 41.1049H634.061V37.7749H637.095Z" fill="black"/>
</svg>
