<svg width="160" height="30" viewBox="0 0 605 205" fill="none" xmlns="http://www.w3.org/2000/svg"><path d="M260.205 111.38v40.031h-22.91v-37.356c0-7.661-2.7-11.577-8.658-11.577-6.932 0-11.261 4.913-11.261 13.45v35.508h-22.91V60.939h22.91v28.382c4.889-3.94 11.115-6.348 17.754-6.348 15.249 0 25.075 11.188 25.075 28.407zm84.465-26.51v66.493h-17.706l-1.97-4.694c-5.447 4.402-12.33 6.955-20.064 6.955-20.332 0-34.876-14.835-34.876-35.507 0-20.6 14.544-35.24 34.876-35.24 7.831 0 14.835 2.626 20.308 7.15l2.334-5.132 17.098-.025zm-21.767 33.295c0-8.634-6.299-15.103-14.884-15.103-8.634 0-14.884 6.494-14.884 15.103 0 8.683 6.299 15.176 14.884 15.176s14.884-6.493 14.884-15.176zm76.78 33.271-16.66-28.115v28.115h-22.91V60.939h22.91v50.052l15.833-26.048h25.706l-20.721 31.69 22.813 34.803h-26.971zm73.496 0-16.659-28.115v28.115h-22.91V60.939h22.91v50.052l15.832-26.048h25.707l-20.721 31.69 22.812 34.803h-26.971z" fill="#1A1A1A"/><path d="M571.604 117.557c0 1.994-.17 4.013-.462 6.056h-49.371c1.508 7.637 6.348 11.576 13.571 11.576 5.35 0 9.825-2.334 12.014-6.226h22.789c-4.67 15.176-18.119 24.661-34.803 24.661-20.745 0-36.116-15.151-36.116-35.483 0-20.38 15.249-35.362 36.116-35.362 21.402-.025 36.262 15.273 36.262 34.778zm-49.444-6.615h26.874c-2.018-6.64-6.809-10.239-13.716-10.239-6.664 0-11.309 3.624-13.158 10.239zm59.853-25.999h22.91v66.493h-22.91V84.943zm.17-27.774h22.545v19.433h-22.545V57.169zM83.249 114.395l-17.34 5.472c-6.202 1.946-10.41 7.71-10.41 14.204v23.299l-27.75 9.728V53.716l-17.097 5.472C4.305 61.206 0 67.116 0 73.78v130.796l64.522-20.746c11.139-3.575 18.703-13.96 18.703-25.658v-43.777h.024z" fill="#1A1A1A"/><path d="m55.5 90.732 17.437-5.618a14.893 14.893 0 0 0 10.312-14.18V47.783L111 38.054v113.381l17.121-5.496c6.324-2.043 10.628-7.928 10.628-14.568V.576L74.202 21.32c-11.139 3.575-18.703 13.96-18.703 25.658v43.753z" fill="#1A1A1A"/></svg>
