<svg width="95" height="94" viewBox="0 0 95 94" fill="none" xmlns="http://www.w3.org/2000/svg">
<g filter="url(#filter0_d)">
<path opacity="0.2" d="M35.9998 68.2499C35.77 68.2499 35.5424 68.2047 35.3301 68.1167C35.1178 68.0288 34.9249 67.8999 34.7624 67.7374C34.5999 67.5749 34.471 67.3819 34.383 67.1696C34.2951 66.9573 34.2498 66.7297 34.2498 66.4999L34.2499 57.1604C33.3164 57.6026 32.2861 57.8015 31.2551 57.7386C30.224 57.6756 29.2256 57.353 28.3527 56.8005C27.4798 56.2481 26.7609 55.4839 26.2626 54.579C25.7644 53.6741 25.5032 52.6579 25.5032 51.6249C25.5032 50.5919 25.7644 49.5757 26.2626 48.6708C26.7609 47.7659 27.4798 47.0017 28.3527 46.4493C29.2256 45.8969 30.224 45.5742 31.2551 45.5113C32.2861 45.4484 33.3164 45.6472 34.2499 46.0894L34.2498 36.75C34.2498 36.5201 34.2951 36.2926 34.383 36.0802C34.471 35.8679 34.5999 35.675 34.7624 35.5125C34.9249 35.35 35.1178 35.2211 35.3301 35.1331C35.5425 35.0452 35.77 34.9999 35.9999 34.9999L46.2143 35C45.7721 34.0665 45.5733 33.0362 45.6362 32.0052C45.6991 30.9741 46.0218 29.9757 46.5742 29.1028C47.1266 28.23 47.8908 27.511 48.7957 27.0128C49.7006 26.5146 50.7168 26.2533 51.7498 26.2533C52.7828 26.2533 53.799 26.5146 54.7039 27.0128C55.6088 27.511 56.373 28.23 56.9254 29.1028C57.4778 29.9757 57.8005 30.9741 57.8634 32.0052C57.9263 33.0362 57.7275 34.0665 57.2853 35L67.4997 34.9999C67.9639 34.9999 68.409 35.1843 68.7372 35.5125C69.0654 35.8407 69.2497 36.2858 69.2497 36.7499L69.2499 46.0894C68.3163 45.6472 67.2861 45.4484 66.255 45.5113C65.2239 45.5742 64.2255 45.8969 63.3526 46.4493C62.4798 47.0017 61.7608 47.7659 61.2626 48.6708C60.7643 49.5757 60.5031 50.5919 60.5031 51.6249C60.5031 52.6579 60.7643 53.6741 61.2626 54.579C61.7608 55.4839 62.4798 56.2481 63.3526 56.8005C64.2255 57.353 65.2239 57.6756 66.255 57.7386C67.2861 57.8015 68.3163 57.6026 69.2499 57.1604L69.2497 66.4999C69.2497 66.9641 69.0654 67.4092 68.7372 67.7374C68.409 68.0656 67.9639 68.2499 67.4997 68.2499L35.9998 68.2499Z" fill="#6366F1"/>
<path d="M35.9998 68.2499C35.77 68.2499 35.5424 68.2047 35.3301 68.1167C35.1178 68.0288 34.9249 67.8999 34.7624 67.7374C34.5999 67.5749 34.471 67.3819 34.383 67.1696C34.2951 66.9573 34.2498 66.7297 34.2498 66.4999L34.2499 57.1604C33.3164 57.6026 32.2861 57.8015 31.2551 57.7386C30.224 57.6756 29.2256 57.353 28.3527 56.8005C27.4798 56.2481 26.7609 55.4839 26.2626 54.579C25.7644 53.6741 25.5032 52.6579 25.5032 51.6249C25.5032 50.5919 25.7644 49.5757 26.2626 48.6708C26.7609 47.7659 27.4798 47.0017 28.3527 46.4493C29.2256 45.8969 30.224 45.5742 31.2551 45.5113C32.2861 45.4484 33.3164 45.6472 34.2499 46.0894L34.2498 36.75C34.2498 36.5201 34.2951 36.2926 34.383 36.0802C34.471 35.8679 34.5999 35.675 34.7624 35.5125C34.9249 35.35 35.1178 35.2211 35.3301 35.1331C35.5425 35.0452 35.77 34.9999 35.9999 34.9999L46.2143 35C45.7721 34.0665 45.5733 33.0362 45.6362 32.0052C45.6991 30.9741 46.0218 29.9757 46.5742 29.1028C47.1266 28.23 47.8908 27.511 48.7957 27.0128C49.7006 26.5146 50.7168 26.2533 51.7498 26.2533C52.7828 26.2533 53.799 26.5146 54.7039 27.0128C55.6088 27.511 56.373 28.23 56.9254 29.1028C57.4778 29.9757 57.8005 30.9741 57.8634 32.0052C57.9263 33.0362 57.7275 34.0665 57.2853 35L67.4997 34.9999C67.9639 34.9999 68.409 35.1843 68.7372 35.5125C69.0654 35.8407 69.2497 36.2858 69.2497 36.7499L69.2499 46.0894C68.3163 45.6472 67.2861 45.4484 66.255 45.5113C65.2239 45.5742 64.2255 45.8969 63.3526 46.4493C62.4798 47.0017 61.7608 47.7659 61.2626 48.6708C60.7643 49.5757 60.5031 50.5919 60.5031 51.6249C60.5031 52.6579 60.7643 53.6741 61.2626 54.579C61.7608 55.4839 62.4798 56.2481 63.3526 56.8005C64.2255 57.353 65.2239 57.6756 66.255 57.7386C67.2861 57.8015 68.3163 57.6026 69.2499 57.1604L69.2497 66.4999C69.2497 66.9641 69.0654 67.4092 68.7372 67.7374C68.409 68.0656 67.9639 68.2499 67.4997 68.2499L35.9998 68.2499Z" stroke="#6366F1" stroke-width="3.5" stroke-linecap="round" stroke-linejoin="round"/>
</g>
<defs>
<filter id="filter0_d" x="-1.52" y="-2.52" width="103.04" height="103.04" filterUnits="userSpaceOnUse" color-interpolation-filters="sRGB">
<feFlood flood-opacity="0" result="BackgroundImageFix"/>
<feColorMatrix in="SourceAlpha" type="matrix" values="0 0 0 0 0 0 0 0 0 0 0 0 0 0 0 0 0 0 127 0"/>
<feOffset/>
<feGaussianBlur stdDeviation="11.76"/>
<feColorMatrix type="matrix" values="0 0 0 0 0.388235 0 0 0 0 0.4 0 0 0 0 0.945098 0 0 0 0.6 0"/>
<feBlend mode="normal" in2="BackgroundImageFix" result="effect1_dropShadow"/>
<feBlend mode="normal" in="SourceGraphic" in2="effect1_dropShadow" result="shape"/>
</filter>
</defs>
</svg>
