<svg width="185" height="42" viewBox="0 0 185 42" fill="none" xmlns="http://www.w3.org/2000/svg">
<path d="M24.4988 39.0875L17.7007 28.2453C16.2093 25.8668 17.919 22.7768 20.7264 22.7768C21.9559 22.7768 23.0989 23.4092 23.7521 24.4508L30.5509 35.2924C32.0427 37.6712 30.3328 40.7619 27.5249 40.7619C26.2952 40.7619 25.152 40.1293 24.4988 39.0875Z" fill="#1A1A1A" stroke="black"/>
<path d="M21.035 1.26038C28.8589 1.26038 35.4053 7.59172 35.643 15.4484H30.799H28.6186C28.3766 11.1688 25.0346 8.38788 21.1003 8.38788H15.0053C12.2233 8.38634 9.48779 7.661 7.06019 6.28069C4.89223 5.048 3.03429 3.32958 1.6256 1.26038H21.035Z" fill="#1A1A1A" stroke="black"/>
<path d="M70.4942 25.815C72.2872 25.1683 73.8337 23.9783 74.9182 22.4108C75.9467 20.8914 76.461 19.0768 76.461 16.9671C76.5085 15.0897 76.0069 13.2393 75.0175 11.6431C74.0105 10.1094 72.5689 8.9109 70.877 8.20096C69.0731 7.40032 66.9576 7 64.5303 7H53V11.4035H64.2907C66.5582 11.4035 68.2793 11.8837 69.454 12.8441C70.6286 13.8044 71.213 15.1788 71.2072 16.9671C71.2072 18.7553 70.6228 20.1365 69.454 21.1105C68.2852 22.0845 66.5641 22.5715 64.2907 22.5715H53V35.0223H58.2041V26.8406H64.5391C64.9 26.8451 65.2608 26.8315 65.6203 26.7997L71.3445 35.0077H76.949L70.4942 25.815Z" fill="#1A1A1A"/>
<path d="M70.4942 25.815C72.2872 25.1683 73.8337 23.9783 74.9182 22.4108C75.9467 20.8914 76.461 19.0768 76.461 16.9671C76.5085 15.0897 76.0069 13.2393 75.0175 11.6431C74.0105 10.1094 72.5689 8.9109 70.877 8.20096C69.0731 7.40032 66.9576 7 64.5303 7H53V11.4035H64.2907C66.5582 11.4035 68.2793 11.8837 69.454 12.8441C70.6286 13.8044 71.213 15.1788 71.2072 16.9671C71.2072 18.7553 70.6228 20.1365 69.454 21.1105C68.2852 22.0845 66.5641 22.5715 64.2907 22.5715H53V35.0223H58.2041V26.8406H64.5391C64.9 26.8451 65.2608 26.8315 65.6203 26.7997L71.3445 35.0077H76.949L70.4942 25.815Z" stroke="#1A1A1A"/>
<path d="M83.8652 7H89.084V35.0223H83.8652V7Z" fill="#1A1A1A"/>
<path d="M83.8652 7H89.084V35.0223H83.8652V7Z" stroke="#1A1A1A"/>
<path d="M125.658 7L113.447 35.0223H108.324L96.0723 7H101.718L111.045 28.6231L120.454 7H125.658Z" fill="#1A1A1A"/>
<path d="M125.658 7L113.447 35.0223H108.324L96.0723 7H101.718L111.045 28.6231L120.454 7H125.658Z" stroke="#1A1A1A"/>
<path d="M152.237 30.6597V35.0223H131.219V7H151.673V11.3626H136.42V18.6472H149.952V22.9309H136.423V30.6597H152.237Z" fill="#1A1A1A"/>
<path d="M152.237 30.6597V35.0223H131.219V7H151.673V11.3626H136.42V18.6472H149.952V22.9309H136.423V30.6597H152.237Z" stroke="#1A1A1A"/>
<path d="M184.052 7V35.0223H179.768L164.317 16.0466V35.0223H159.153V7H163.437L178.889 25.9757V7H184.052Z" fill="#1A1A1A"/>
<path d="M184.052 7V35.0223H179.768L164.317 16.0466V35.0223H159.153V7H163.437L178.889 25.9757V7H184.052Z" stroke="#1A1A1A"/>
</svg>
