<svg width="139" height="26"  xmlns="http://www.w3.org/2000/svg" viewBox="0 0 741.14 231.32">
  <g id="Layer_2" data-name="Layer 2">
    <g id="Layer_1-2" data-name="Layer 1">
      <g id="Symbol">
        <polygon points="73.75 123.68 139.68 231.32 192.92 231.32 126.98 123.68 73.75 123.68" style="fill:#9198a7" />
        <path d="M200.82,84.84C201,38.12,162,0,115.17,0H0A95.05,95.05,0,0,0,81,45.4h34.54c21.69,0,40,17.74,39.85,39.44Z" style="fill:#9198a7" />
      </g>
      <g id="Text">
        <path d="M366.38,132.1a31.34,31.34,0,0,0,15.14-11.65q5.28-7.8,5.28-18.63a33,33,0,0,0-4.94-18.22,31.56,31.56,0,0,0-14.17-11.78q-9.26-4.11-21.72-4.11H306.51V82.78h38.64q11.64,0,17.67,4.93t6,14.11q0,9.18-6,14.18t-17.67,5H306.51v42.61h17.81v-28H346a36.78,36.78,0,0,0,3.7-.14l19.59,28.09h19.18Z" style="fill:#9198a7" />
        <path d="M412.14,67.71H430v95.9H412.14Z" style="fill:#9198a7" />
        <path d="M548.32,67.71l-41.79,95.9H489l-41.93-95.9h19.32l31.92,74,32.2-74Z" style="fill:#9198a7" />
        <path d="M635.86,148.68v14.93H563.93V67.71h70V82.64h-52.2v24.93h46.31v14.66H581.74v26.45Z" style="fill:#9198a7" />
        <path d="M741.14,67.71v95.9H726.48L673.6,98.67v64.94H655.93V67.71h14.66l52.88,64.94V67.71Z" style="fill:#9198a7" />
      </g>
    </g>
  </g>
</svg>
