<svg width="185" height="42" viewBox="0 0 686 150" fill="none" xmlns="http://www.w3.org/2000/svg">
<path d="M53.5848 99.527C49.6178 93.2 54.1657 84.9803 61.6335 84.9803H70.8087C74.0791 84.9803 77.1196 86.6625 78.8571 89.4332L106.923 134.188C110.891 140.515 106.343 148.736 98.8749 148.736H89.6955C86.4248 148.736 83.3842 147.053 81.6468 144.282L53.5848 99.527Z" fill="#1A1A1A" stroke="black"/>
<path d="M69.7107 11.5911C97.4586 11.5911 120.598 34.3735 120.764 62.3953H103.015H94.4154C94.1676 47.8263 83.0969 38.3128 69.9334 38.3128H49.1436C39.4452 38.3074 29.9099 35.7787 21.449 30.9679C13.2443 26.3028 6.3155 19.6426 1.28246 11.5911H69.7107Z" fill="#1A1A1A" stroke="black"/>
<path d="M197.49 127.954V101.047H218.091C219.159 101.06 220.228 101.028 221.293 100.95L240.489 128.476L240.788 128.904H241.31H260.426H262.35L261.244 127.329L239.964 97.023C245.759 94.6646 250.751 90.6666 254.321 85.5066L254.327 85.4981C257.961 80.1293 259.759 73.742 259.761 66.3824C259.926 59.7887 258.162 53.2901 254.688 47.6837L254.681 47.6726L254.674 47.6617C251.131 42.2669 246.061 38.0507 240.111 35.5517C233.807 32.7554 226.451 31.3735 218.067 31.3735H178.739H177.739V32.3735V47.3933V48.3933H178.739H217.25C224.863 48.3933 230.47 50.0083 234.228 53.081C237.959 56.1311 239.86 60.5081 239.841 66.3665V66.3697C239.841 72.2303 237.939 76.6361 234.221 79.7342C230.484 82.8481 224.882 84.4857 217.25 84.4857H178.739H177.739V85.4857V127.954V128.954H178.739H196.49H197.49V127.954Z" fill="#1A1A1A" stroke="#1A1A1A" stroke-width="2"/>
<path d="M284.016 31.3735H283.016V32.3735V127.954V128.954H284.016H301.816H302.816V127.954V32.3735V31.3735H301.816H284.016Z" fill="#1A1A1A" stroke="#1A1A1A" stroke-width="2"/>
<path d="M427.481 32.773L428.091 31.3735H426.564H408.814H408.158L407.897 31.9745L376.725 103.611L345.826 31.9775L345.565 31.3735H344.908H325.652H324.123L324.736 32.7741L366.526 128.354L366.788 128.954H367.442H384.914H385.569L385.83 128.353L427.481 32.773Z" fill="#1A1A1A" stroke="#1A1A1A" stroke-width="2"/>
<path d="M518.221 113.073V112.073H517.221H464.282V87.7116H509.427H510.427V86.7116V72.1005V71.1005H509.427H464.272V48.2537H515.298H516.298V47.2537V32.3735V31.3735H515.298H445.531H444.531V32.3735V127.954V128.954H445.531H517.221H518.221V127.954V113.073Z" fill="#1A1A1A" stroke="#1A1A1A" stroke-width="2"/>
<path d="M626.738 32.3735V31.3735H625.738H608.127H607.127V32.3735V94.2851L556.199 31.7421L555.899 31.3735H555.424H540.812H539.812V32.3735V127.954V128.954H540.812H558.424H559.424V127.954V66.042L610.352 128.585L610.652 128.954H611.127H625.738H626.738V127.954V32.3735Z" fill="#1A1A1A" stroke="#1A1A1A" stroke-width="2"/>
<path d="M658.032 3.73306C665.21 3.73306 669.946 8.76506 669.946 15.9431C669.946 23.1211 665.21 28.1531 658.032 28.1531C650.78 28.1531 646.192 23.1211 646.192 15.9431C646.192 8.76506 650.78 3.73306 658.032 3.73306ZM658.032 31.1131C666.764 31.1131 672.98 24.6751 672.98 15.9431C672.98 7.21106 666.764 0.847062 658.032 0.847062C649.226 0.847062 643.01 7.21106 643.01 15.9431C643.01 24.6751 649.226 31.1131 658.032 31.1131ZM664.692 12.8351C664.692 9.80106 662.472 7.87706 659.142 7.87706H652.038V23.7871H655.886V17.8671H657.144L660.696 23.7871L665.358 23.7131L661.214 17.5711C663.36 16.9051 664.692 15.2031 664.692 12.8351ZM658.92 11.3551C659.956 11.3551 660.844 11.7991 660.844 12.9831C660.844 14.1671 659.956 14.6851 658.92 14.6851H655.886V11.3551H658.92Z" fill="black"/>
</svg>
