<svg width="56" height="100" viewBox="0 0 56 100" fill="none" xmlns="http://www.w3.org/2000/svg">
<path d="M23.333 98.3336L23.333 1.6666C23.333 0.744923 22.5881 -3.25615e-08 21.6664 -7.28495e-08L1.66636 -9.47079e-07C0.744678 -9.87367e-07 -0.000242266 0.744922 -0.000242306 1.6666L-0.000246532 98.3334C-0.000246572 99.2551 0.744674 100 1.66636 100L21.6664 100C22.5879 100 23.333 99.2553 23.333 98.3336ZM3.33297 96.6668L3.33297 3.3334L19.9996 3.3334L19.9996 8.33341L16.6662 8.33166C15.7463 8.33166 14.9996 9.07658 14.9996 9.99826C14.9996 10.9182 15.7445 11.6649 16.6662 11.6649L19.9996 11.6666L19.9996 18.3332L13.333 18.3332C12.4113 18.3332 11.6664 19.0782 11.6664 19.9998C11.6664 20.9215 12.4113 21.6664 13.333 21.6664L19.9996 21.6664L19.9996 28.3331L16.6662 28.3331C15.7445 28.3331 14.9996 29.078 14.9996 29.9997C14.9996 30.9214 15.7445 31.6663 16.6662 31.6663L19.9996 31.6663L19.9996 38.3329L13.333 38.3329C12.4113 38.3329 11.6664 39.0778 11.6664 39.9995C11.6664 40.9212 12.4113 41.6661 13.333 41.6661L19.9996 41.6661L19.9996 48.3327L16.6662 48.3327C15.7445 48.3327 14.9996 49.0776 14.9996 49.9993C14.9996 50.921 15.7445 51.6659 16.6662 51.6659L19.9996 51.6659L19.9996 58.3325L13.333 58.3325C12.4113 58.3325 11.6664 59.0775 11.6664 59.9991C11.6664 60.9208 12.4113 61.6657 13.333 61.6657L19.9996 61.6657L19.9996 68.3324L16.6662 68.3324C15.7445 68.3324 14.9996 69.0773 14.9996 69.999C14.9996 70.9207 15.7445 71.6656 16.6662 71.6656L19.9996 71.6656L19.9996 78.3322L13.333 78.3322C12.4113 78.3322 11.6664 79.0771 11.6664 79.9988C11.6664 80.9205 12.4113 81.6654 13.333 81.6654L19.9996 81.6654L19.9996 88.3353L16.6662 88.3336C15.7463 88.3336 14.9996 89.0785 14.9996 90.0002C14.9996 90.9201 15.7445 91.6668 16.6662 91.6668L19.9996 91.6685L19.9996 96.6652L3.33297 96.6652L3.33297 96.6668Z" fill="black"/>
<path d="M44.4033 92.9751L54.4033 85.2368C54.9433 84.8185 55.1382 84.1317 54.9033 83.5202C54.6632 82.9085 54.0367 82.5003 53.3349 82.5003L45.0015 82.5003L45.0015 17.5L53.3365 17.5C54.0382 17.5 54.6648 17.0916 54.9031 16.48C55.1414 15.8683 54.9447 15.1834 54.4031 14.7634L44.4015 7.02515C44.0931 6.78687 43.7132 6.66675 43.3349 6.66675C42.9566 6.66675 42.5765 6.78667 42.2665 7.02515L32.2665 14.7634C31.8798 15.0634 31.6683 15.5017 31.6683 15.9517C31.6683 16.1285 31.7017 16.3068 31.7683 16.4785C32.0083 17.0902 32.6349 17.4984 33.3349 17.4984L41.6683 17.4984L41.6683 82.4985L33.3349 82.4985C32.6331 82.4985 32.0066 82.9069 31.7683 83.5185C31.7017 83.6901 31.6683 83.8685 31.6683 84.0452C31.6683 84.4952 31.88 84.9335 32.2665 85.2353L42.2665 92.9736C42.5765 93.2136 42.9548 93.3335 43.3349 93.3335C43.715 93.3335 44.0931 93.2134 44.4033 92.9751ZM37.9382 14.405L43.3349 10.2283L48.7316 14.405L37.9382 14.405ZM37.9382 85.595L48.7316 85.595L43.3349 89.7718L37.9382 85.595Z" fill="#3026C5"/>
</svg>
