<svg width="100" height="100" viewBox="0 0 100 100" fill="none" xmlns="http://www.w3.org/2000/svg">
<g clip-path="url(#clip0)">
<path d="M97.8645 41.0249L87.638 22.2048V19.5692C87.638 15.6953 84.4864 12.5437 80.6126 12.5437H73.1261C74.0724 11.0211 74.4853 9.26889 74.3213 7.46301C73.9611 3.49265 70.6878 0.292414 66.7075 0.018973C62.0194 -0.302906 57.9055 3.51335 57.9055 8.22337C57.9055 9.62553 58.267 11.0129 58.9516 12.2365C58.9816 12.3029 58.9832 12.4359 58.9633 12.5437H51.6476C47.7737 12.5437 44.6221 15.6953 44.6221 19.5692L44.6213 28.3607C44.5914 28.372 44.5485 28.3769 44.5283 28.3648C43.0934 27.5048 41.4455 27.108 39.7625 27.216C35.6755 27.4783 32.3801 30.757 32.0971 34.8438C31.7749 39.5337 35.5921 43.6478 40.3037 43.6478C41.7564 43.6478 43.1881 43.2607 44.4494 42.5251C44.4881 42.5027 44.5729 42.5117 44.6221 42.5339V49.8703C44.6221 53.7442 47.7737 56.8958 51.6476 56.8958H61.9393C62.0754 58.9089 62.4663 60.8933 63.1145 62.8133C64.561 67.0955 67.3847 73.4741 69.4091 77.0322C69.4187 77.0488 69.4284 77.0654 69.4382 77.0818C70.1826 78.3043 70.4853 79.5219 70.3636 80.8027L67.9286 97.7691C67.8481 98.3299 68.0149 98.8977 68.386 99.3258C68.757 99.7537 69.2954 99.9996 69.862 99.9996H91.7881C92.8666 99.9996 93.7412 99.1252 93.7412 98.0465V77.097L99.4933 53.5987C100.535 49.3414 99.9569 44.8759 97.8645 41.0249ZM48.5282 49.8703V42.5128C48.5282 39.4854 45.0526 37.6399 42.476 39.1538C41.8168 39.5382 41.0656 39.7413 40.3035 39.7413C37.8247 39.7413 35.8243 37.5807 35.9941 35.1124C36.1423 32.9705 37.8699 31.2516 40.0131 31.1141C40.8994 31.0566 41.7682 31.2646 42.5162 31.7129C45.0834 33.2594 48.5282 31.3939 48.5282 28.3779V19.5692C48.5282 17.8493 49.9274 16.45 51.6474 16.45H59.1904C62.2254 16.45 63.7557 12.7998 62.36 10.3285C62.0012 9.68725 61.8116 8.95931 61.8116 8.22337C61.8116 5.74599 63.9725 3.74597 66.4393 3.91609C68.5263 4.05945 70.2423 5.73603 70.431 7.81613C70.5206 8.80306 70.2853 9.75639 69.7468 10.5783C68.1827 12.9824 69.8431 16.45 72.7804 16.45H80.6126C82.3325 16.45 83.7317 17.8493 83.7317 19.5692V44.8449C83.7317 45.9556 83.2769 47.0676 82.4946 47.8582L76.7926 53.261V42.9867C76.7926 38.9329 73.3892 35.5438 69.3372 35.5305C65.2757 35.5305 61.8813 38.9302 61.8813 42.9867V52.9897H51.6476C49.9274 52.9897 48.5282 51.5905 48.5282 49.8703ZM95.6991 52.6698L89.8908 76.3972C89.8537 76.5492 89.8347 76.7052 89.8347 76.8617V96.0935H72.1154L74.2363 81.3147C74.2402 81.2877 74.2435 81.2609 74.2463 81.234C74.4621 79.1012 73.9724 77.0296 72.7906 75.0769C70.8695 71.6942 68.1923 65.6402 66.8153 61.5634C66.0919 59.4208 65.788 57.2044 65.788 54.9485V42.9874C65.788 41.0638 67.4024 39.4372 69.3306 39.4372C71.2312 39.4431 72.8859 41.0839 72.8859 42.9874V54.2024C72.8859 55.536 73.6885 56.8054 74.8973 57.3712C76.1793 57.9714 77.767 57.7189 78.7957 56.7452L85.2021 50.6748C86.7751 49.1957 87.639 46.9859 87.639 44.8453V30.3881L94.4321 42.89C96.0596 45.8853 96.5096 49.3586 95.6991 52.6698Z" fill="black"/>
<path d="M48.6963 62.3212C46.5154 60.1397 42.8107 61.2651 42.0413 64.2255C41.847 64.9634 41.4595 65.6382 40.9206 66.1771C39.1698 67.9281 36.2241 67.8146 34.6004 65.9513C33.1908 64.3319 33.1969 61.8948 34.6151 60.2821C35.2026 59.6135 35.9625 59.1475 36.8086 58.9356C39.7997 58.1936 40.8843 54.509 38.7012 52.3263L32.4725 46.0976C29.7628 43.388 25.2472 43.3872 22.537 46.0976L17.2432 51.3906C16.834 49.6462 15.8867 48.1163 14.4947 46.9554C11.4603 44.4239 7.19071 44.3819 4.11157 46.8532C0.346684 49.8749 0.000976783 55.6774 3.42387 59.1006C4.41138 60.0882 5.64167 60.8102 6.97508 61.1884C7.04813 61.2331 7.13993 61.3358 7.20145 61.4329L2.0553 66.579C-0.684578 69.3191 -0.685164 73.7768 2.05393 76.5159L23.48 97.9421C26.1905 100.653 30.7062 100.651 33.417 97.9407L38.4032 92.9545C39.1659 92.1918 39.1659 90.9551 38.4032 90.1922C37.6405 89.4295 36.4037 89.4295 35.6409 90.1922L30.6547 95.1784C29.4378 96.3954 27.4583 96.396 26.2421 95.1798L4.81646 73.7537C3.60024 72.5375 3.60082 70.5582 4.81783 69.3412L10.1501 64.0089C12.2636 61.8952 10.7558 58.2 8.07041 57.4383C7.35985 57.2407 6.70848 56.8604 6.1864 56.3383C4.3813 54.5334 4.57583 51.4894 6.55672 49.8997C8.16807 48.6066 10.4034 48.6294 11.9927 49.9552C12.7566 50.5921 13.2658 51.4361 13.464 52.39C14.0463 55.2309 17.6713 56.4879 19.7594 54.3996L25.2991 48.8601C26.4995 47.6595 28.5093 47.6593 29.7101 48.8601L35.9389 55.0889C35.9684 55.1143 35.9432 55.1332 35.8633 55.1457C34.2404 55.5524 32.7941 56.4369 31.681 57.7034C28.9765 60.779 28.965 65.4275 31.6545 68.5173C34.7426 72.0613 40.3511 72.2715 43.6825 68.9398C44.7099 67.9125 45.4486 66.6263 45.8185 65.2202C45.85 65.0796 45.8882 65.0341 45.9337 65.0839L51.1391 70.2891C52.3383 71.4883 52.3389 73.4953 51.1391 74.6948L47.7076 78.1263C46.9449 78.889 46.9447 80.1257 47.7076 80.8884C48.4707 81.6513 49.7072 81.6511 50.4699 80.8884L53.9014 77.4569C56.6391 74.7192 56.6391 70.2646 53.9014 67.5269L48.6963 62.3212Z" fill="#3026C5"/>
</g>
<defs>
<clipPath id="clip0">
<rect width="100" height="100" fill="white"/>
</clipPath>
</defs>
</svg>
