<svg width="100" height="98" viewBox="0 0 100 98" fill="none" xmlns="http://www.w3.org/2000/svg">
<path d="M46.6204 36.177V18.8327C50.6784 17.79 53.6862 14.1005 53.6862 9.72156C53.6862 4.53517 49.4669 0.315918 44.2805 0.315918C39.0945 0.315918 34.8752 4.53517 34.8752 9.72156C34.8752 14.1005 37.883 17.7897 41.9407 18.8324V36.1767C37.0192 36.9174 32.8405 39.9564 30.5359 44.1625L20.2436 36.1614C20.4953 35.4529 20.6335 34.6908 20.6335 33.8971C20.6335 30.1564 17.5902 27.113 13.8495 27.113C10.1088 27.113 7.06543 30.1564 7.06543 33.8971C7.06543 37.6377 10.1088 40.6811 13.8495 40.6811C15.0887 40.6811 16.2502 40.3454 17.251 39.763L28.8848 48.807C28.7133 49.7339 28.619 50.6873 28.619 51.6632C28.619 55.1387 29.7584 58.3521 31.6811 60.9531L18.527 74.1072C17.6132 75.021 17.6132 76.5026 18.527 77.4161C18.9841 77.8728 19.5831 78.1015 20.1818 78.1015C20.7805 78.1015 21.3795 77.8732 21.8365 77.4161L34.9907 64.262C36.9964 65.7448 39.3665 66.7616 41.9407 67.1491V84.5321C39.3494 85.4874 37.4965 87.9814 37.4965 90.9C37.4965 94.6406 40.5399 97.684 44.2805 97.684C48.0212 97.684 51.0646 94.6406 51.0646 90.9C51.0646 87.9811 49.2117 85.4871 46.6204 84.5321V67.1494C54.1504 66.0166 59.9421 59.5039 59.9421 51.6635C59.9421 43.8225 54.1501 37.3098 46.6204 36.177ZM13.8495 36.0017C12.6889 36.0017 11.7452 35.0576 11.7452 33.8974C11.7452 32.7371 12.6889 31.7931 13.8495 31.7931C15.0101 31.7931 15.9538 32.7371 15.9538 33.8974C15.9538 35.0576 15.0097 36.0017 13.8495 36.0017ZM39.5546 9.72156C39.5546 7.11557 41.6746 4.99565 44.2802 4.99565C46.8859 4.99565 49.0061 7.11557 49.0061 9.72156C49.0061 12.3275 46.8859 14.4475 44.2802 14.4475C41.6746 14.4475 39.5546 12.3275 39.5546 9.72156ZM44.2805 93.0043C43.12 93.0043 42.1762 92.0602 42.1762 90.9C42.1762 89.8845 42.8991 89.0346 43.8575 88.8384C43.9948 88.8637 44.1358 88.8786 44.2805 88.8786C44.4253 88.8786 44.5663 88.8637 44.7036 88.8384C45.662 89.0346 46.3849 89.8845 46.3849 90.9C46.3849 92.0602 45.4408 93.0043 44.2805 93.0043ZM44.2805 62.6447C38.2253 62.6447 33.2991 57.7182 33.2991 51.6629C33.2991 50.5944 33.4554 49.562 33.7412 48.5846C33.7564 48.5362 33.7708 48.4882 33.7827 48.4392C35.1632 43.9523 39.3465 40.6811 44.2805 40.6811C50.3358 40.6811 55.2623 45.6076 55.2623 51.6629C55.2623 57.7185 50.3358 62.6447 44.2805 62.6447Z" fill="black"/>
<path d="M90.5952 28.9357C85.4088 28.9357 81.1895 33.1549 81.1895 38.3413C81.1895 38.5831 81.2017 38.8218 81.2198 39.0589L64.2985 44.8284C63.0752 45.2452 62.4216 46.5751 62.8387 47.7981C63.1704 48.7712 64.0795 49.3836 65.0532 49.3836C65.3037 49.3836 65.5583 49.3431 65.8085 49.2579L82.7292 43.4887C84.4114 46.0507 87.3081 47.7473 90.5955 47.7473C95.7816 47.7473 100.001 43.528 100.001 38.3416C100.001 33.1552 95.7813 28.9357 90.5952 28.9357ZM90.5952 43.0675C87.9892 43.0675 85.8693 40.9476 85.8693 38.3416C85.8693 35.7356 87.9895 33.6157 90.5952 33.6157C93.2009 33.6157 95.3208 35.7356 95.3208 38.3416C95.3208 40.9473 93.2009 43.0675 90.5952 43.0675Z" fill="#3026C5"/>
<path d="M9.40564 77.1328C4.21925 77.1328 0 81.3524 0 86.5385C0 91.7248 4.21925 95.9441 9.40564 95.9441C14.5917 95.9441 18.811 91.7248 18.811 86.5385C18.8113 81.3524 14.5917 77.1328 9.40564 77.1328ZM9.40564 91.2647C6.79965 91.2647 4.67973 89.1447 4.67973 86.5388C4.67973 83.9328 6.79997 81.8129 9.40564 81.8129C12.0113 81.8129 14.1312 83.9328 14.1312 86.5388C14.1316 89.1444 12.0116 91.2647 9.40564 91.2647Z" fill="#3026C5"/>
</svg>
